<svg width="24" height="24" viewBox="0 0 24 24" fill="none" xmlns="http://www.w3.org/2000/svg">
<path d="M19.6238 5.32698C18.2214 4.71369 16.7181 4.26038 15.146 4.00262C15.132 4.00002 15.1175 4.0017 15.1046 4.00743C15.0916 4.01316 15.0808 4.02266 15.0736 4.03462C14.8811 4.3626 14.6666 4.79013 14.5163 5.12788C12.849 4.88633 11.154 4.88633 9.4867 5.12788C9.31926 4.75356 9.13044 4.38857 8.92113 4.03462C8.91403 4.02252 8.9033 4.0128 8.89036 4.00676C8.87742 4.00073 8.86289 3.99866 8.84871 4.00084C7.27759 4.25861 5.7743 4.71191 4.37093 5.32609C4.35885 5.331 4.34862 5.33938 4.34159 5.35009C1.48901 9.41649 0.707116 13.3825 1.09119 17.2986C1.09226 17.3082 1.09533 17.3175 1.10021 17.3259C1.1051 17.3343 1.1117 17.3417 1.1196 17.3475C2.78458 18.5229 4.64164 19.4183 6.61303 19.9962C6.62677 20.0003 6.64147 20.0003 6.65521 19.9962C6.66894 19.9921 6.68108 19.984 6.69003 19.9731C7.11424 19.423 7.49016 18.8394 7.81383 18.2284C7.81832 18.22 7.82091 18.2108 7.82142 18.2014C7.82193 18.192 7.82035 18.1826 7.81679 18.1738C7.81322 18.1651 7.80776 18.1571 7.80076 18.1506C7.79377 18.1441 7.78541 18.139 7.77624 18.1359C7.1841 17.9197 6.61036 17.6588 6.06029 17.3555C6.05041 17.3501 6.04208 17.3423 6.03606 17.3329C6.03003 17.3236 6.02649 17.3129 6.02577 17.3019C6.02504 17.2909 6.02714 17.2799 6.03189 17.2698C6.03664 17.2598 6.04388 17.2511 6.05296 17.2444C6.16846 17.1618 6.28395 17.0755 6.39395 16.9893C6.40385 16.9816 6.41578 16.9766 6.4284 16.9751C6.44103 16.9735 6.45385 16.9754 6.46545 16.9804C10.0651 18.5483 13.9636 18.5483 17.521 16.9804C17.5327 16.9751 17.5456 16.973 17.5584 16.9744C17.5712 16.9758 17.5834 16.9807 17.5935 16.9884C17.7035 17.0755 17.818 17.1618 17.9345 17.2444C17.9436 17.2509 17.951 17.2595 17.9559 17.2695C17.9608 17.2794 17.9631 17.2904 17.9625 17.3014C17.962 17.3124 17.9586 17.3231 17.9528 17.3326C17.9469 17.342 17.9387 17.3499 17.929 17.3555C17.3808 17.6613 16.8106 17.9199 16.2121 18.135C16.2029 18.1383 16.1945 18.1434 16.1875 18.15C16.1805 18.1566 16.1751 18.1646 16.1715 18.1734C16.1679 18.1823 16.1664 18.1917 16.1669 18.2012C16.1674 18.2107 16.17 18.2199 16.1745 18.2284C16.5045 18.839 16.8821 19.4203 17.2974 19.9722C17.306 19.9836 17.318 19.992 17.3318 19.9965C17.3456 20.0009 17.3605 20.0012 17.3744 19.9971C19.3491 19.4208 21.2092 18.525 22.8761 17.3475C22.8842 17.342 22.891 17.3349 22.8961 17.3266C22.9011 17.3183 22.9043 17.3091 22.9054 17.2995C23.3637 12.7718 22.1372 8.83786 19.6522 5.35187C19.6461 5.34054 19.6361 5.33171 19.6238 5.32698ZM8.3519 14.9139C7.26843 14.9139 6.3747 13.9637 6.3747 12.7985C6.3747 11.6323 7.25101 10.6831 8.3519 10.6831C9.46103 10.6831 10.3465 11.6403 10.3291 12.7985C10.3291 13.9646 9.45278 14.9139 8.3519 14.9139ZM15.6621 14.9139C14.5777 14.9139 13.6849 13.9637 13.6849 12.7985C13.6849 11.6323 14.5603 10.6831 15.6621 10.6831C16.7712 10.6831 17.6567 11.6403 17.6393 12.7985C17.6393 13.9646 16.7722 14.9139 15.6621 14.9139Z" fill="black"/>
</svg>
