<svg width="24" height="24" viewBox="0 0 24 24" fill="none" xmlns="http://www.w3.org/2000/svg">
<path d="M9.00072 12C9.00072 10.3432 10.3435 8.99976 12.0004 8.99976C13.6572 8.99976 15.0007 10.3432 15.0007 12C15.0007 13.6568 13.6572 15.0002 12.0004 15.0002C10.3435 15.0002 9.00072 13.6568 9.00072 12ZM7.37878 12C7.37878 14.5524 9.44786 16.6214 12.0004 16.6214C14.5529 16.6214 16.6219 14.5524 16.6219 12C16.6219 9.4476 14.5529 7.37861 12.0004 7.37861C9.44786 7.37861 7.37878 9.4476 7.37878 12ZM15.7249 7.19537C15.7248 7.40897 15.788 7.6178 15.9066 7.79546C16.0252 7.97311 16.1939 8.1116 16.3912 8.19342C16.5885 8.27525 16.8057 8.29672 17.0152 8.25513C17.2247 8.21354 17.4172 8.11076 17.5683 7.95978C17.7194 7.8088 17.8223 7.6164 17.8641 7.40692C17.9059 7.19744 17.8846 6.98028 17.8029 6.7829C17.7212 6.58552 17.5829 6.4168 17.4053 6.29805C17.2277 6.17931 17.0189 6.11589 16.8053 6.1158H16.8049C16.5186 6.11593 16.244 6.2297 16.0415 6.43212C15.839 6.63454 15.7251 6.90905 15.7249 7.19537ZM8.36421 19.3258C7.48672 19.2858 7.00977 19.1397 6.69281 19.0162C6.2726 18.8526 5.97278 18.6578 5.65755 18.343C5.34233 18.0282 5.1472 17.7287 4.98433 17.3085C4.86077 16.9917 4.7146 16.5146 4.67472 15.6372C4.63108 14.6885 4.62237 14.4035 4.62237 12.0001C4.62237 9.59664 4.6318 9.31246 4.67472 8.36299C4.71468 7.48553 4.86192 7.00939 4.98433 6.69166C5.14792 6.27146 5.34276 5.97166 5.65755 5.65644C5.97235 5.34122 6.27188 5.1461 6.69281 4.98324C7.00962 4.85969 7.48672 4.71353 8.36421 4.67364C9.31292 4.63001 9.59791 4.6213 12.0004 4.6213C14.4028 4.6213 14.6881 4.63073 15.6376 4.67364C16.5151 4.7136 16.9912 4.86084 17.309 4.98324C17.7292 5.1461 18.029 5.34166 18.3442 5.65644C18.6595 5.97122 18.8539 6.27146 19.0175 6.69166C19.141 7.00846 19.2872 7.48553 19.3271 8.36299C19.3707 9.31246 19.3794 9.59664 19.3794 12.0001C19.3794 14.4035 19.3707 14.6877 19.3271 15.6372C19.2871 16.5146 19.1402 16.9915 19.0175 17.3085C18.8539 17.7287 18.659 18.0285 18.3442 18.343C18.0294 18.6575 17.7292 18.8526 17.309 19.0162C16.9922 19.1397 16.5151 19.2859 15.6376 19.3258C14.6889 19.3694 14.4039 19.3781 12.0004 19.3781C9.59683 19.3781 9.31264 19.3694 8.36421 19.3258ZM8.28969 3.0545C7.33155 3.09814 6.67683 3.25006 6.10505 3.47254C5.5129 3.70229 5.01162 4.01052 4.51069 4.51063C4.00977 5.01074 3.70232 5.5128 3.47255 6.10493C3.25007 6.67704 3.09814 7.33138 3.05451 8.28948C3.01015 9.2491 3 9.55589 3 12C3 14.4441 3.01015 14.7509 3.05451 15.7105C3.09814 16.6687 3.25007 17.323 3.47255 17.8951C3.70232 18.4868 4.00984 18.9895 4.51069 19.4894C5.01154 19.9893 5.5129 20.2971 6.10505 20.5275C6.67791 20.7499 7.33155 20.9019 8.28969 20.9455C9.24985 20.9891 9.55615 21 12.0004 21C14.4446 21 14.7514 20.9898 15.711 20.9455C16.6692 20.9019 17.3235 20.7499 17.8957 20.5275C18.4875 20.2971 18.9891 19.9895 19.49 19.4894C19.991 18.9893 20.2978 18.4868 20.5282 17.8951C20.7507 17.323 20.9033 16.6686 20.9462 15.7105C20.9898 14.7502 21 14.4441 21 12C21 9.55589 20.9898 9.2491 20.9462 8.28948C20.9026 7.3313 20.7507 6.67668 20.5282 6.10493C20.2978 5.51316 19.9902 5.01154 19.49 4.51063C18.9899 4.00973 18.4875 3.70229 17.8964 3.47254C17.3235 3.25006 16.6692 3.09742 15.7117 3.0545C14.7521 3.01087 14.4453 3 12.0011 3C9.55687 3 9.24985 3.01015 8.28969 3.0545Z" fill="black"/>
</svg>
