<svg width="22" height="16" viewBox="0 0 22 16" fill="none" xmlns="http://www.w3.org/2000/svg">
<path d="M21.5 7.93435C21.5 7.88279 21.5 7.82419 21.4977 7.75623C21.4953 7.56638 21.4906 7.3531 21.4859 7.12576C21.4672 6.47185 21.4344 5.82029 21.3828 5.20623C21.3125 4.36013 21.2094 3.65466 21.0687 3.12498C20.9204 2.5722 20.6295 2.06806 20.2252 1.66294C19.8209 1.25781 19.3173 0.965904 18.7648 0.816382C18.1016 0.638257 16.8031 0.528101 14.975 0.460132C14.1055 0.427319 13.175 0.406225 12.2445 0.394507C11.9187 0.389819 11.6164 0.387476 11.3445 0.385132H10.6555C10.3836 0.387476 10.0813 0.389819 9.75547 0.394507C8.825 0.406225 7.89453 0.427319 7.025 0.460132C5.19687 0.530444 3.89609 0.6406 3.23516 0.816382C2.6825 0.965537 2.17876 1.25732 1.7744 1.6625C1.37004 2.06768 1.07928 2.57202 0.93125 3.12498C0.788281 3.65466 0.6875 4.36013 0.617188 5.20623C0.565625 5.82029 0.532812 6.47185 0.514062 7.12576C0.507031 7.3531 0.504687 7.56638 0.502344 7.75623C0.502344 7.82419 0.5 7.88279 0.5 7.93435V8.0656C0.5 8.11716 0.5 8.17576 0.502344 8.24373C0.504687 8.43357 0.509375 8.64685 0.514062 8.87419C0.532812 9.5281 0.565625 10.1797 0.617188 10.7937C0.6875 11.6398 0.790625 12.3453 0.93125 12.875C1.23125 13.9976 2.1125 14.8836 3.23516 15.1836C3.89609 15.3617 5.19687 15.4719 7.025 15.5398C7.89453 15.5726 8.825 15.5937 9.75547 15.6054C10.0813 15.6101 10.3836 15.6125 10.6555 15.6148H11.3445C11.6164 15.6125 11.9187 15.6101 12.2445 15.6054C13.175 15.5937 14.1055 15.5726 14.975 15.5398C16.8031 15.4695 18.1039 15.3594 18.7648 15.1836C19.8875 14.8836 20.7687 14 21.0687 12.875C21.2117 12.3453 21.3125 11.6398 21.3828 10.7937C21.4344 10.1797 21.4672 9.5281 21.4859 8.87419C21.493 8.64685 21.4953 8.43357 21.4977 8.24373C21.4977 8.17576 21.5 8.11716 21.5 8.0656V7.93435ZM19.8125 8.05623C19.8125 8.10544 19.8125 8.15935 19.8102 8.22263C19.8078 8.40544 19.8031 8.60701 19.7984 8.82498C19.782 9.44841 19.7492 10.0718 19.7 10.6508C19.6367 11.4054 19.5477 12.0242 19.4375 12.439C19.2922 12.9804 18.8656 13.4094 18.3266 13.5523C17.8344 13.6836 16.5945 13.789 14.9094 13.8523C14.0562 13.8851 13.1375 13.9062 12.2211 13.9179C11.9 13.9226 11.6023 13.925 11.3352 13.925H10.6648L9.77891 13.9179C8.8625 13.9062 7.94609 13.8851 7.09063 13.8523C5.40547 13.7867 4.16328 13.6836 3.67344 13.5523C3.13437 13.407 2.70781 12.9804 2.5625 12.439C2.45234 12.0242 2.36328 11.4054 2.3 10.6508C2.25078 10.0718 2.22031 9.44841 2.20156 8.82498C2.19453 8.60701 2.19219 8.4031 2.18984 8.22263C2.18984 8.15935 2.1875 8.1031 2.1875 8.05623V7.94373C2.1875 7.89451 2.1875 7.8406 2.18984 7.77732C2.19219 7.59451 2.19688 7.39294 2.20156 7.17498C2.21797 6.55154 2.25078 5.9281 2.3 5.34919C2.36328 4.59451 2.45234 3.97576 2.5625 3.56091C2.70781 3.01951 3.13437 2.5906 3.67344 2.44763C4.16562 2.31638 5.40547 2.21091 7.09063 2.14763C7.94375 2.11482 8.8625 2.09373 9.77891 2.08201C10.1 2.07732 10.3977 2.07498 10.6648 2.07498H11.3352L12.2211 2.08201C13.1375 2.09373 14.0539 2.11482 14.9094 2.14763C16.5945 2.21326 17.8367 2.31638 18.3266 2.44763C18.8656 2.59294 19.2922 3.01951 19.4375 3.56091C19.5477 3.97576 19.6367 4.59451 19.7 5.34919C19.7492 5.9281 19.7797 6.55154 19.7984 7.17498C19.8055 7.39294 19.8078 7.59685 19.8102 7.77732C19.8102 7.8406 19.8125 7.89685 19.8125 7.94373V8.05623ZM8.91406 11.1406L14.3516 7.97654L8.91406 4.85935V11.1406Z" fill="black"/>
</svg>
