<svg width="46" height="44" viewBox="0 0 46 44" fill="none" xmlns="http://www.w3.org/2000/svg">
<path d="M43.0761 44L27.7758 28.7377L30.6997 25.8211L46 41.0806L43.0761 44ZM4.78133 44L1.85466 41.0806L21.0296 21.956L12.8448 13.8466L11.3402 15.3475L8.72765 12.6892V17.6374L7.22298 19.1383L0 11.9333L1.50467 10.4296H6.46513L3.8168 7.84006L9.78313 1.88854C10.4188 1.25445 11.1151 0.783456 11.872 0.475571C12.6271 0.169519 13.4327 0.0164939 14.2889 0.0164939C15.1432 0.0164939 15.9479 0.169519 16.703 0.475571C17.4599 0.783456 18.1562 1.25445 18.7919 1.88854L14.2558 6.41335L17.2762 9.42621L15.7715 10.9272L23.9563 19.0366L31.0029 12.0075C30.5711 11.3972 30.2717 10.7732 30.1045 10.1354C29.9373 9.49769 29.8537 8.79762 29.8537 8.03524C29.8537 5.79025 30.6336 3.88979 32.1934 2.33387C33.7532 0.777958 35.6584 0 37.9089 0C38.3866 0 38.8459 0.0339044 39.2868 0.101712C39.7278 0.16952 40.1659 0.305135 40.6014 0.508559L34.8913 6.20167L39.7471 11.0454L45.4543 5.34949C45.6693 5.78017 45.808 6.21634 45.8705 6.658C45.9329 7.09967 45.9642 7.55875 45.9642 8.03524C45.9642 10.2802 45.1834 12.1807 43.6217 13.7366C42.0638 15.2943 40.1595 16.0732 37.9089 16.0732C37.1447 16.0732 36.4428 15.9908 35.8035 15.8258C35.1642 15.6609 34.5395 15.3603 33.9296 14.9242L4.78133 44Z" fill="black"/>
</svg>
