<svg width="299" height="53" viewBox="0 0 299 53" fill="none" xmlns="http://www.w3.org/2000/svg">
<path d="M6.6 23.35H37.19V28.39H6.6V45.96H41.46V51H0.440001V2H40.48V7.04H6.6V23.35ZM92.0804 2V51H85.3604L52.2504 9.56V51H46.0904V2H52.8804L85.9204 43.44V2H92.0804ZM107.608 23.35H138.198V28.39H107.608V45.96H142.468V51H101.448V2H141.488V7.04H107.608V23.35ZM153.258 6.9V24.68H172.508C175.728 24.68 179.438 24.12 181.958 22.16C184.548 20.13 185.038 17.61 185.038 15.37C185.038 12.85 184.548 10.05 181.398 8.3C179.508 7.25 176.778 6.9 171.178 6.9H153.258ZM147.098 51V2H172.158C176.148 2 183.008 1.86 187.208 5.15C190.778 7.95 191.478 11.94 191.478 14.88C191.478 17.26 191.058 20.69 188.468 23.42C185.738 26.29 181.748 26.99 181.188 27.06V27.27C183.218 27.62 185.598 28.6 187.068 30.21C189.308 32.59 189.378 35.39 189.518 37.63L189.868 44.28C190.008 46.59 190.148 48.48 191.968 51H185.248C183.988 48.83 183.638 47.08 183.498 44.49L183.218 38.75C183.148 36.86 183.078 33.99 180.978 31.96C178.668 29.72 174.818 29.58 172.158 29.58H153.258V51H147.098ZM225.066 26.01H249.356V51H244.176V41.97H243.966C242.076 46.03 239.066 48.62 236.476 50.02C232.276 52.26 226.956 52.4 223.036 52.4C217.016 52.4 209.316 51.7 203.366 45.54C200.356 42.39 196.786 36.51 196.786 26.64C196.786 16.56 200.706 10.61 204.136 7.25C210.366 1.16 218.136 0.319997 224.296 0.319997C229.686 0.319997 236.616 0.949998 241.936 4.73C246.486 8.02 248.096 12.01 248.376 16.14H242.006C241.446 11.87 238.996 9.28 236.686 7.81C233.256 5.64 228.356 5.22 224.576 5.22C219.816 5.22 213.796 6.06 209.246 10.54C205.606 14.18 203.366 19.92 203.366 26.78C203.366 33.64 205.606 39.1 208.966 42.46C213.656 47.15 219.606 47.5 223.806 47.5C227.516 47.5 234.026 47.22 238.506 42.74C241.376 39.87 243.196 35.11 243.336 30.63H225.066V26.01ZM274.434 25.52L291.234 2H298.374L277.444 30.07V51H271.284V30.07L250.354 2H257.704L274.434 25.52Z" fill="#D1F121"/>
</svg>
