<svg width="41" height="32" viewBox="0 0 41 32" fill="none" xmlns="http://www.w3.org/2000/svg">
<g clip-path="url(#clip0_2545_609)">
<path d="M5.0494 19.4477V30.619H0C0 30.4742 0 30.3371 0 30.2C0 25.0341 0 19.8682 0 14.7023C0 12.9533 0.852452 11.6933 2.33353 11.2525C3.57036 10.8845 5.63992 11.1574 6.61551 12.798C9.21505 17.1705 11.8527 21.5193 14.4754 25.8771C14.5407 25.9855 14.6087 26.0926 14.7645 26.1989V25.7862C14.7645 18.4977 14.7645 11.2099 14.7645 3.92135C14.7645 3.05594 14.8999 2.22201 15.37 1.48532C16.0973 0.345665 17.1871 -0.031423 18.4505 0.00215812C19.9085 0.0413361 20.9296 0.785717 21.5705 2.10797C23.374 5.82778 25.1722 9.54969 26.973 13.2709C28.5058 16.4394 30.0392 19.6072 31.572 22.7757C32.3136 24.3079 33.0517 25.8421 33.7987 27.3715C33.9049 27.5883 34.0362 27.7982 34.1872 27.9843C34.443 28.2991 34.7913 28.4034 35.1696 28.2914C35.5376 28.1823 35.6472 27.8535 35.686 27.503C35.7111 27.2721 35.7186 27.0377 35.7186 26.8055C35.7206 21.6977 35.72 16.5905 35.72 11.4827C35.72 11.3435 35.72 11.2043 35.72 11.0203H38.3372V8.30299H40.9993V11.0343H38.3746V11.5499C38.3746 16.6577 38.3753 21.7648 38.3739 26.8726C38.3739 27.9067 38.1161 28.8441 37.4392 29.6459C36.0833 31.2508 32.9504 31.1144 31.7605 28.8672C31.0897 27.6002 30.4937 26.2913 29.8705 24.9984C28.3275 21.7956 26.7886 18.5914 25.2484 15.3879C23.3271 11.3911 21.4086 7.3928 19.4846 3.39735C19.3594 3.13779 19.2172 2.88244 19.0519 2.64877C18.8397 2.35004 18.5335 2.2437 18.1791 2.31646C17.8335 2.38782 17.5987 2.61379 17.5334 2.9573C17.462 3.33089 17.4239 3.71777 17.4239 4.09905C17.4178 12.3551 17.4212 20.6112 17.415 28.8672C17.415 29.2842 17.377 29.7067 17.3069 30.1174C17.1028 31.3081 16.4918 31.9259 15.3217 31.9917C13.8556 32.0735 12.601 31.6258 11.7792 30.2517C10.9186 28.8127 10.0287 27.3931 9.15178 25.9646C7.87004 23.8762 6.5883 21.7879 5.30656 19.7003C5.24873 19.6058 5.1841 19.5156 5.12287 19.4239C5.09906 19.4323 5.07457 19.4407 5.05076 19.4498L5.0494 19.4477Z" fill="black"/>
</g>
<defs>
<clipPath id="clip0_2545_609">
<rect width="41" height="32" fill="white"/>
</clipPath>
</defs>
</svg>
