<svg width="183" height="146" viewBox="0 0 183 146" fill="none" xmlns="http://www.w3.org/2000/svg">
<g filter="url(#filter0_d_1001_529)">
<path d="M25.5527 83.8655V132.041H4C4 131.416 4 130.825 4 130.233C4 107.956 4 85.6787 4 63.4014C4 55.859 7.63857 50.4254 13.9603 48.5247C19.2396 46.9378 28.0732 48.1144 32.2374 55.1892C43.3332 74.0453 54.5916 92.7988 65.7861 111.592C66.0648 112.059 66.3552 112.521 67.0202 112.979V111.199C67.0202 79.7685 67.0202 48.3407 67.0202 16.9099C67.0202 13.1779 67.5981 9.58163 69.6047 6.40476C72.7089 1.49011 77.361 -0.136034 82.7535 0.00878022C88.9765 0.177731 93.3353 3.38779 96.0707 9.08987C103.769 25.1311 111.444 41.1814 119.131 57.2287C125.673 70.8925 132.218 84.5534 138.761 98.2173C141.926 104.824 145.077 111.441 148.265 118.036C148.718 118.971 149.279 119.876 149.923 120.679C151.015 122.036 152.502 122.486 154.117 122.003C155.688 121.532 156.155 120.114 156.321 118.603C156.428 117.607 156.46 116.597 156.46 115.595C156.469 93.5681 156.466 71.5442 156.466 49.5173C156.466 48.9169 156.466 48.3165 156.466 47.5231H167.637V35.8052H179V47.5834H167.797V49.8069C167.797 71.8338 167.8 93.8577 167.794 115.885C167.794 120.344 166.693 124.386 163.804 127.844C158.016 134.765 144.644 134.177 139.565 124.486C136.702 119.022 134.158 113.378 131.498 107.802C124.912 93.9905 118.344 80.1727 111.769 66.358C103.569 49.1221 95.3796 31.8801 87.1674 14.6501C86.6331 13.5309 86.0262 12.4297 85.3205 11.422C84.4145 10.1337 83.1078 9.67516 81.5948 9.98892C80.1197 10.2967 79.1178 11.2711 78.839 12.7525C78.5341 14.3635 78.3715 16.0319 78.3715 17.6762C78.3454 53.2795 78.3599 88.8827 78.3338 124.486C78.3338 126.284 78.1712 128.106 77.872 129.877C77.0009 135.012 74.3932 137.676 69.3985 137.96C63.1406 138.313 57.7858 136.382 54.2779 130.457C50.6045 124.251 46.8062 118.129 43.0631 111.969C37.5922 102.963 32.1213 93.9573 26.6503 84.9547C26.4035 84.5474 26.1276 84.1582 25.8663 83.763C25.7647 83.7992 25.6601 83.8354 25.5585 83.8746L25.5527 83.8655Z" fill="white"/>
</g>
<defs>
<filter id="filter0_d_1001_529" x="0" y="0" width="183" height="146" filterUnits="userSpaceOnUse" color-interpolation-filters="sRGB">
<feFlood flood-opacity="0" result="BackgroundImageFix"/>
<feColorMatrix in="SourceAlpha" type="matrix" values="0 0 0 0 0 0 0 0 0 0 0 0 0 0 0 0 0 0 127 0" result="hardAlpha"/>
<feOffset dy="4"/>
<feGaussianBlur stdDeviation="2"/>
<feComposite in2="hardAlpha" operator="out"/>
<feColorMatrix type="matrix" values="0 0 0 0 0 0 0 0 0 0 0 0 0 0 0 0 0 0 0.25 0"/>
<feBlend mode="normal" in2="BackgroundImageFix" result="effect1_dropShadow_1001_529"/>
<feBlend mode="normal" in="SourceGraphic" in2="effect1_dropShadow_1001_529" result="shape"/>
</filter>
</defs>
</svg>
